<?xml version="1.0" encoding="iso-8859-1"?>
<!-- Generator: Adobe Illustrator 19.0.0, SVG Export Plug-In . SVG Version: 6.00 Build 0)  -->
<svg version="1.1" id="Capa_1" xmlns="http://www.w3.org/2000/svg" xmlns:xlink="http://www.w3.org/1999/xlink" x="0px" y="0px"
	 viewBox="0 0 497.261 497.261" style="enable-background:new 0 0 497.261 497.261;" xml:space="preserve">
<circle style="fill:#4FBF9F;" cx="345.212" cy="345.056" r="152.048"/>
<path style="fill:#FFFFFF;" d="M6.982,232.571v119.467c0,22.497,17.842,40.339,40.339,40.339s40.339-17.842,40.339-40.339V232.571
	H6.982z"/>
<path style="fill:#193651;" d="M47.321,399.359C20.945,399.359,0,377.638,0,352.038V232.571c0-3.879,3.103-6.982,6.982-6.982h80.679
	c3.879,0,6.982,3.103,6.982,6.982v119.467C94.642,378.414,73.697,399.359,47.321,399.359z M13.964,239.553v112.485
	c0,17.842,14.739,33.358,33.358,33.358c17.842,0,33.358-14.739,33.358-33.358V239.553H13.964z"/>
<path style="fill:#F16051;" d="M283.152,7.602H87.661v297.115v46.545v0.776c0,22.497-17.842,40.339-40.339,40.339h282.376
	c22.497,0,40.339-17.842,40.339-40.339V95.262L283.152,7.602z"/>
<path style="fill:#193651;" d="M375.467,89.832L287.806,2.947c-0.776-1.552-3.103-2.327-4.655-2.327H87.661
	c-3.879,0-6.982,3.103-6.982,6.982v344.436c0,17.842-14.739,33.358-33.358,33.358c-3.879,0-6.982,3.103-6.982,6.982
	s3.103,6.982,6.982,6.982h282.376c26.376,0,47.321-21.721,47.321-47.321V95.262C377.794,92.935,377.018,91.383,375.467,89.832z
	 M363.055,352.038c0,17.842-14.739,33.358-33.358,33.358H81.455c8.533-8.533,13.188-20.17,13.188-33.358V15.359h185.406
	l83.006,83.006V352.038z"/>
<g>
	<path style="fill:#FFFFFF;" d="M117.139,37.08v314.958c0,3.879,0,7.758-0.776,11.636h214.109c6.206,0,11.636-5.43,11.636-10.861
		V95.262L283.927,37.08H117.139z"/>
	<path style="fill:#FFFFFF;" d="M283.152,7.602v65.164c0,12.412,10.085,21.721,21.721,21.721h65.164L283.152,7.602z"/>
</g>
<g>
	<path style="fill:#193651;" d="M370.036,102.244L370.036,102.244h-65.164c-16.291,0-28.703-13.188-28.703-28.703V7.602
		c0-3.103,1.552-5.43,4.655-6.982c3.103-0.776,6.206-0.776,7.758,1.552l86.109,86.109c1.552,1.552,3.103,3.103,3.103,6.206
		C377.794,99.141,374.691,102.244,370.036,102.244z M290.133,25.444v48.097c0,7.758,6.206,14.739,14.739,14.739h48.097
		L290.133,25.444z"/>
	<rect x="139.636" y="293.08" style="fill:#193651;" width="58.182" height="14.739"/>
	<rect x="139.636" y="251.965" style="fill:#193651;" width="83.006" height="14.739"/>
	<rect x="139.636" y="210.85" style="fill:#193651;" width="125.673" height="14.739"/>
	<rect x="139.636" y="169.735" style="fill:#193651;" width="178.424" height="14.739"/>
	<rect x="139.636" y="128.62" style="fill:#193651;" width="178.424" height="14.739"/>
	<rect x="139.636" y="87.505" style="fill:#193651;" width="14.739" height="14.739"/>
	<rect x="168.339" y="87.505" style="fill:#193651;" width="14.739" height="14.739"/>
	<rect x="197.818" y="87.505" style="fill:#193651;" width="14.739" height="14.739"/>
	<rect x="226.521" y="87.505" style="fill:#193651;" width="14.739" height="14.739"/>
</g>
<circle style="fill:#FDBF5E;" cx="345.212" cy="345.056" r="113.261"/>
<path style="fill:#193651;" d="M345.212,466.074c-66.715,0-121.018-54.303-121.018-121.018s54.303-121.018,121.018-121.018
	S466.23,278.341,466.23,345.056C465.455,411.771,411.152,466.074,345.212,466.074z M345.212,239.553
	c-58.182,0-106.279,47.321-106.279,106.279c0,58.182,47.321,106.279,106.279,106.279s105.503-48.097,105.503-107.055
	C450.715,286.874,403.394,239.553,345.212,239.553z"/>
<path style="fill:#FFFFFF;" d="M345.212,429.614c-46.545,0-84.558-38.012-84.558-84.558c0-46.545,38.012-84.558,84.558-84.558
	s84.558,38.012,84.558,84.558C428.994,391.602,391.758,429.614,345.212,429.614z"/>
<polygon style="fill:#E1E6E9;" points="384.776,305.493 335.903,353.59 311.855,330.317 294.012,348.935 335.903,390.826 
	402.618,323.335 "/>
<g>
</g>
<g>
</g>
<g>
</g>
<g>
</g>
<g>
</g>
<g>
</g>
<g>
</g>
<g>
</g>
<g>
</g>
<g>
</g>
<g>
</g>
<g>
</g>
<g>
</g>
<g>
</g>
<g>
</g>
</svg>
